<?xml version="1.0" encoding="UTF-8" standalone="no"?>
<!DOCTYPE svg PUBLIC "-//W3C//DTD SVG 1.1//EN"
 "http://www.w3.org/Graphics/SVG/1.1/DTD/svg11.dtd">
<!-- Generated by graphviz version 9.0.0 (20230911.1827)
 -->
<!-- Title: foo Pages: 1 -->
<svg width="253pt" height="288pt"
 viewBox="0.00 0.00 253.19 288.00" xmlns="http://www.w3.org/2000/svg" xmlns:xlink="http://www.w3.org/1999/xlink">
<g id="graph0" class="graph" transform="scale(0.885375 0.885375) rotate(0) translate(4 321.29)">
<title>foo</title>
<polygon fill="white" stroke="none" points="-4,4 -4,-321.29 281.97,-321.29 281.97,4 -4,4"/>
<!-- main -->
<g id="node1" class="node">
<title>main</title>
<polygon fill="none" stroke="black" points="139.39,-317.29 85.39,-317.29 85.39,-281.29 139.39,-281.29 139.39,-317.29"/>
<text text-anchor="middle" x="112.39" y="-294.24" font-family="Times,serif" font-size="14.00">main</text>
</g>
<!-- parse -->
<g id="node2" class="node">
<title>parse</title>
<ellipse fill="none" stroke="black" cx="112.39" cy="-226.29" rx="30.37" ry="18"/>
<text text-anchor="middle" x="112.39" y="-221.24" font-family="Times,serif" font-size="14.00">parse</text>
</g>
<!-- main&#45;&gt;parse -->
<g id="edge1" class="edge">
<title>main&#45;&gt;parse</title>
<path fill="none" stroke="black" d="M112.39,-281.1C112.39,-273.51 112.39,-264.39 112.39,-255.83"/>
<polygon fill="black" stroke="black" points="115.89,-255.83 112.39,-245.83 108.89,-255.83 115.89,-255.83"/>
</g>
<!-- init -->
<g id="node4" class="node">
<title>init</title>
<ellipse fill="none" stroke="black" cx="180.39" cy="-172.29" rx="27" ry="18"/>
<text text-anchor="middle" x="180.39" y="-167.24" font-family="Times,serif" font-size="14.00">init</text>
</g>
<!-- main&#45;&gt;init -->
<g id="edge3" class="edge">
<title>main&#45;&gt;init</title>
<path fill="none" stroke="black" stroke-dasharray="1,5" d="M126.5,-280.99C134.46,-270.73 144.21,-257.23 151.39,-244.29 159.06,-230.46 165.86,-214.18 170.94,-200.71"/>
<polygon fill="black" stroke="black" points="174.13,-202.17 174.27,-191.58 167.55,-199.78 174.13,-202.17"/>
</g>
<!-- cleanup -->
<g id="node5" class="node">
<title>cleanup</title>
<ellipse fill="none" stroke="black" cx="238.39" cy="-226.29" rx="39.58" ry="18"/>
<text text-anchor="middle" x="238.39" y="-221.24" font-family="Times,serif" font-size="14.00">cleanup</text>
</g>
<!-- main&#45;&gt;cleanup -->
<g id="edge4" class="edge">
<title>main&#45;&gt;cleanup</title>
<path fill="none" stroke="black" d="M139.85,-286.01C153.47,-279.65 170.04,-271.51 184.39,-263.29 192.37,-258.72 200.74,-253.41 208.45,-248.29"/>
<polygon fill="black" stroke="black" points="210.2,-251.33 216.53,-242.83 206.28,-245.53 210.2,-251.33"/>
</g>
<!-- printf -->
<g id="node7" class="node">
<title>printf</title>
<ellipse fill="none" stroke="black" cx="31.39" cy="-31.64" rx="31.39" ry="18"/>
<text text-anchor="middle" x="31.39" y="-26.59" font-family="Times,serif" font-size="14.00">printf</text>
</g>
<!-- main&#45;&gt;printf -->
<g id="edge8" class="edge">
<title>main&#45;&gt;printf</title>
<path fill="none" stroke="red" stroke-width="2" d="M98.04,-281.12C90,-270.9 80.25,-257.4 73.39,-244.29 42.02,-184.32 34.01,-103.58 32.01,-61.26"/>
<polygon fill="red" stroke="red" stroke-width="2" points="35.57,-62.79 31.7,-52.93 28.58,-63.06 35.57,-62.79"/>
<text text-anchor="middle" x="79.39" y="-167.24" font-family="Times,serif" font-size="14.00">100 times</text>
</g>
<!-- execute -->
<g id="node3" class="node">
<title>execute</title>
<ellipse fill="none" stroke="black" cx="112.39" cy="-118.29" rx="39.07" ry="18"/>
<text text-anchor="middle" x="112.39" y="-113.24" font-family="Times,serif" font-size="14.00">execute</text>
</g>
<!-- parse&#45;&gt;execute -->
<g id="edge2" class="edge">
<title>parse&#45;&gt;execute</title>
<path fill="none" stroke="black" d="M112.39,-208.26C112.39,-192.05 112.39,-167.34 112.39,-148.08"/>
<polygon fill="black" stroke="black" points="115.89,-148.14 112.39,-138.14 108.89,-148.14 115.89,-148.14"/>
</g>
<!-- make_string -->
<g id="node6" class="node">
<title>make_string</title>
<ellipse fill="none" stroke="black" cx="203.39" cy="-31.64" rx="41.54" ry="31.64"/>
<text text-anchor="middle" x="203.39" y="-36.72" font-family="Times,serif" font-size="14.00">make a</text>
<text text-anchor="middle" x="203.39" y="-20.22" font-family="Times,serif" font-size="14.00">字符串</text>
</g>
<!-- execute&#45;&gt;make_string -->
<g id="edge5" class="edge">
<title>execute&#45;&gt;make_string</title>
<path fill="none" stroke="black" d="M129.08,-101.76C140.3,-91.33 155.49,-77.2 169.21,-64.44"/>
<polygon fill="black" stroke="black" points="171.47,-67.12 176.4,-57.75 166.7,-61.99 171.47,-67.12"/>
</g>
<!-- execute&#45;&gt;printf -->
<g id="edge6" class="edge">
<title>execute&#45;&gt;printf</title>
<path fill="none" stroke="black" d="M97.16,-101.37C84.9,-88.56 67.5,-70.37 53.67,-55.93"/>
<polygon fill="black" stroke="black" points="56.5,-53.82 47.06,-49.02 51.44,-58.66 56.5,-53.82"/>
</g>
<!-- compare -->
<g id="node8" class="node">
<title>compare</title>
<polygon fill="#c1b2ff" stroke="#c1b2ff" points="144.02,-49.64 80.77,-49.64 80.77,-13.64 144.02,-13.64 144.02,-49.64"/>
<text text-anchor="middle" x="112.39" y="-26.59" font-family="Times,serif" font-size="14.00">compare</text>
</g>
<!-- execute&#45;&gt;compare -->
<g id="edge9" class="edge">
<title>execute&#45;&gt;compare</title>
<path fill="none" stroke="red" d="M112.39,-100.16C112.39,-88.99 112.39,-74.14 112.39,-61.21"/>
<polygon fill="red" stroke="red" points="115.89,-61.55 112.39,-51.55 108.89,-61.55 115.89,-61.55"/>
</g>
<!-- init&#45;&gt;make_string -->
<g id="edge7" class="edge">
<title>init&#45;&gt;make_string</title>
<path fill="none" stroke="black" d="M183.26,-154.01C186.53,-134.28 192,-101.3 196.42,-74.69"/>
<polygon fill="black" stroke="black" points="199.86,-75.3 198.05,-64.86 192.96,-74.15 199.86,-75.3"/>
</g>
</g>
</svg>
