<?xml version="1.0" encoding="UTF-8" standalone="no"?>
<!DOCTYPE svg PUBLIC "-//W3C//DTD SVG 1.1//EN"
 "http://www.w3.org/Graphics/SVG/1.1/DTD/svg11.dtd">
<!-- Generated by graphviz version 7.0.0 (20221023.0053)
 -->
<!-- Title: foo Pages: 1 -->
<svg width="256pt" height="288pt"
 viewBox="0.00 0.00 256.22 288.00" xmlns="http://www.w3.org/2000/svg" xmlns:xlink="http://www.w3.org/1999/xlink">
<g id="graph0" class="graph" transform="scale(0.912143 0.912143) rotate(0) translate(4 311.74)">
<title>foo</title>
<polygon fill="white" stroke="none" points="-4,4 -4,-311.74 276.89,-311.74 276.89,4 -4,4"/>
<!-- main -->
<g id="node1" class="node">
<title>main</title>
<polygon fill="none" stroke="black" points="138.55,-307.74 84.55,-307.74 84.55,-271.74 138.55,-271.74 138.55,-307.74"/>
<text text-anchor="middle" x="111.55" y="-286.04" font-family="Times,serif" font-size="14.00">main</text>
</g>
<!-- parse -->
<g id="node2" class="node">
<title>parse</title>
<ellipse fill="none" stroke="black" cx="111.55" cy="-216.74" rx="29.5" ry="18"/>
<text text-anchor="middle" x="111.55" y="-213.04" font-family="Times,serif" font-size="14.00">parse</text>
</g>
<!-- main&#45;&gt;parse -->
<g id="edge1" class="edge">
<title>main&#45;&gt;parse</title>
<path fill="none" stroke="black" d="M111.55,-271.55C111.55,-263.97 111.55,-254.84 111.55,-246.28"/>
<polygon fill="black" stroke="black" points="115.05,-246.28 111.55,-236.28 108.05,-246.28 115.05,-246.28"/>
</g>
<!-- init -->
<g id="node4" class="node">
<title>init</title>
<ellipse fill="none" stroke="black" cx="179.55" cy="-162.74" rx="27" ry="18"/>
<text text-anchor="middle" x="179.55" y="-159.04" font-family="Times,serif" font-size="14.00">init</text>
</g>
<!-- main&#45;&gt;init -->
<g id="edge3" class="edge">
<title>main&#45;&gt;init</title>
<path fill="none" stroke="black" stroke-dasharray="1,5" d="M125.21,-271.36C132.93,-261.07 142.43,-247.57 149.55,-234.74 157.26,-220.84 164.27,-204.56 169.57,-191.1"/>
<polygon fill="black" stroke="black" points="172.76,-192.57 173.06,-181.98 166.22,-190.07 172.76,-192.57"/>
</g>
<!-- cleanup -->
<g id="node5" class="node">
<title>cleanup</title>
<ellipse fill="none" stroke="black" cx="234.55" cy="-216.74" rx="38.19" ry="18"/>
<text text-anchor="middle" x="234.55" y="-213.04" font-family="Times,serif" font-size="14.00">cleanup</text>
</g>
<!-- main&#45;&gt;cleanup -->
<g id="edge4" class="edge">
<title>main&#45;&gt;cleanup</title>
<path fill="none" stroke="black" d="M139.01,-276.36C152.39,-270.04 168.57,-261.96 182.55,-253.74 190.27,-249.2 198.35,-243.9 205.77,-238.78"/>
<polygon fill="black" stroke="black" points="207.34,-241.95 213.51,-233.34 203.32,-236.23 207.34,-241.95"/>
</g>
<!-- printf -->
<g id="node7" class="node">
<title>printf</title>
<ellipse fill="none" stroke="black" cx="30.55" cy="-26.87" rx="30.59" ry="18"/>
<text text-anchor="middle" x="30.55" y="-23.17" font-family="Times,serif" font-size="14.00">printf</text>
</g>
<!-- main&#45;&gt;printf -->
<g id="edge8" class="edge">
<title>main&#45;&gt;printf</title>
<path fill="none" stroke="red" stroke-width="2" d="M97.75,-271.44C89.98,-261.17 80.48,-247.67 73.55,-234.74 42.46,-176.75 33.83,-98.46 31.44,-56.79"/>
<polygon fill="red" stroke="red" stroke-width="2" points="35.01,-58.18 31.04,-48.36 28.02,-58.52 35.01,-58.18"/>
<text text-anchor="middle" x="79.05" y="-159.04" font-family="Times,serif" font-size="14.00">100 times</text>
</g>
<!-- execute -->
<g id="node3" class="node">
<title>execute</title>
<ellipse fill="none" stroke="black" cx="111.55" cy="-108.74" rx="37.89" ry="18"/>
<text text-anchor="middle" x="111.55" y="-105.04" font-family="Times,serif" font-size="14.00">execute</text>
</g>
<!-- parse&#45;&gt;execute -->
<g id="edge2" class="edge">
<title>parse&#45;&gt;execute</title>
<path fill="none" stroke="black" d="M111.55,-198.71C111.55,-182.5 111.55,-157.8 111.55,-138.53"/>
<polygon fill="black" stroke="black" points="115.05,-138.59 111.55,-128.59 108.05,-138.59 115.05,-138.59"/>
</g>
<!-- make_string -->
<g id="node6" class="node">
<title>make_string</title>
<ellipse fill="none" stroke="black" cx="203.55" cy="-26.87" rx="41.94" ry="26.74"/>
<text text-anchor="middle" x="203.55" y="-30.67" font-family="Times,serif" font-size="14.00">make a</text>
<text text-anchor="middle" x="203.55" y="-15.67" font-family="Times,serif" font-size="14.00">字符串</text>
</g>
<!-- execute&#45;&gt;make_string -->
<g id="edge5" class="edge">
<title>execute&#45;&gt;make_string</title>
<path fill="none" stroke="black" d="M129.29,-92.34C141.05,-82.13 156.83,-68.43 170.83,-56.28"/>
<polygon fill="black" stroke="black" points="172.86,-59.15 178.11,-49.95 168.27,-53.86 172.86,-59.15"/>
</g>
<!-- execute&#45;&gt;printf -->
<g id="edge6" class="edge">
<title>execute&#45;&gt;printf</title>
<path fill="none" stroke="black" d="M95.54,-91.96C83.56,-80.14 66.98,-63.79 53.57,-50.57"/>
<polygon fill="black" stroke="black" points="56.35,-48.4 46.77,-43.87 51.44,-53.38 56.35,-48.4"/>
</g>
<!-- compare -->
<g id="node8" class="node">
<title>compare</title>
<polygon fill="#c1b2ff" stroke="#c1b2ff" points="143.55,-44.87 79.55,-44.87 79.55,-8.87 143.55,-8.87 143.55,-44.87"/>
<text text-anchor="middle" x="111.55" y="-23.17" font-family="Times,serif" font-size="14.00">compare</text>
</g>
<!-- execute&#45;&gt;compare -->
<g id="edge9" class="edge">
<title>execute&#45;&gt;compare</title>
<path fill="none" stroke="red" d="M111.55,-90.41C111.55,-80.47 111.55,-67.74 111.55,-56.36"/>
<polygon fill="red" stroke="red" points="115.05,-56.68 111.55,-46.68 108.05,-56.68 115.05,-56.68"/>
</g>
<!-- init&#45;&gt;make_string -->
<g id="edge7" class="edge">
<title>init&#45;&gt;make_string</title>
<path fill="none" stroke="black" d="M182.64,-144.51C186.23,-124.46 192.27,-90.77 196.94,-64.74"/>
<polygon fill="black" stroke="black" points="200.32,-65.7 198.64,-55.24 193.43,-64.47 200.32,-65.7"/>
</g>
</g>
</svg>
